# xmcd
# 
# Track frame offsets:
#     150
#     2162
#     18242
#     35682
#     54145
#     74430
#     86720
#     104505
#     108427
#     127585
# 
# Disc length: 1920
# 
# Revision: 2
# Processed by: cddbd v1.5.2PL0 Copyright (c) Steve Scherf et al.
# Submitted via: BonkEnc v1.0.8
# 
DISCID=77077e0a
DTITLE=capsule - phony phonic
DYEAR=2003
DGENRE=Pop
TTITLE0=phony phonic
TTITLE1=RGB
TTITLE2=cosmic tone cooking
TTITLE3=アイスクリーム
TTITLE4=weekend in my ROOM
TTITLE5=life style music
TTITLE6=swing 54321
TTITLE7=end of summer
TTITLE8=idol fancy
TTITLE9=反重力旅行
EXTD=YEAR: 2003
EXTT0=
EXTT1=
EXTT2=
EXTT3=
EXTT4=
EXTT5=
EXTT6=
EXTT7=
EXTT8=
EXTT9=
PLAYORDER=
